<?xml version="1.0" encoding="utf-8"?>
<!-- Generator: Adobe Illustrator 21.0.0, SVG Export Plug-In . SVG Version: 6.00 Build 0)  -->
<svg version="1.1" id="Layer_1" xmlns="http://www.w3.org/2000/svg" xmlns:xlink="http://www.w3.org/1999/xlink" x="0px" y="0px"
	 viewBox="0 0 576.8 574.6" style="enable-background:new 0 0 576.8 574.6;" xml:space="preserve">
<style type="text/css">
	.st0{fill:#00ADEE;}
	.st1{fill:#FFFFFF;}
</style>
<g>
	<circle class="st0" cx="288.6" cy="288" r="281.3"/>
	<path class="st1" d="M189.9,399.6h-20.4v-12.5H188c0.6,0,1.2-0.2,1.6-0.7c0.4-0.4,0.7-1,0.7-1.6v-2.3c0-0.6-0.2-1.2-0.7-1.6
		c-0.4-0.4-1-0.7-1.6-0.7h-18.5v-12h19.9c0.6,0,1.2-0.2,1.6-0.7c0.4-0.4,0.7-1,0.7-1.6v-2.3c0-0.6-0.2-1.2-0.7-1.6
		c-0.4-0.4-1-0.7-1.6-0.7h-24.8c-0.6,0-1.2,0.2-1.6,0.7c-0.4,0.4-0.7,1-0.7,1.6v40.4c0,0.6,0.2,1.2,0.7,1.6c0.4,0.4,1,0.7,1.6,0.7
		h25.3c0.6,0,1.2-0.2,1.6-0.7c0.4-0.4,0.7-1,0.7-1.6v-2.2c0-0.6-0.2-1.2-0.7-1.6C191.1,399.8,190.5,399.6,189.9,399.6z"/>
	<path class="st1" d="M221.3,383.6l13.7-19.2c0.2-0.3,0.2-0.6,0.2-0.9c0-0.5-0.2-1-0.6-1.4c-0.4-0.4-0.8-0.6-1.4-0.6h-2.7
		c-0.9,0-1.5,0.2-2,0.6c-0.4,0.3-0.8,0.8-1.1,1.3l-10.4,14.5l-10.6-14.6c-0.4-0.5-0.7-0.9-1.1-1.2c-0.5-0.4-1.1-0.6-2-0.6h-2.9
		c-0.5,0-1,0.2-1.4,0.6c-0.4,0.4-0.6,0.8-0.6,1.4c0,0.3,0.1,0.6,0.3,1l13.9,19l-14.5,20c-0.2,0.3-0.3,0.6-0.3,1c0,0.5,0.2,1,0.6,1.4
		c0.4,0.4,0.8,0.6,1.4,0.6h2.7c0.8,0,1.5-0.2,1.9-0.5c0.4-0.3,0.8-0.7,1.1-1.2l11.3-15.5l11.3,15.5c0.4,0.5,0.7,0.9,1.1,1.2
		c0.4,0.3,1.1,0.5,1.9,0.5h2.9c0.5,0,1-0.2,1.4-0.6c0.4-0.4,0.6-0.9,0.6-1.4c0-0.4-0.1-0.7-0.3-1L221.3,383.6z"/>
	<path class="st1" d="M250.8,370.6c1.9-2,4.6-3,8-3c3.5,0,6.1,0.7,7.7,2.2c1.7,1.5,2.8,3.5,3.3,5.8c0.1,0.6,0.4,1,0.8,1.3
		c0.4,0.3,0.9,0.5,1.4,0.5h2.9c0.5,0,1-0.2,1.4-0.6c0.4-0.4,0.6-0.9,0.6-1.4c-0.1-2.1-0.8-4.4-2.1-6.6c-1.3-2.3-3.3-4.2-6-5.7
		c-2.7-1.5-6.1-2.3-10-2.3c-3.6,0-6.8,0.8-9.5,2.3c-2.7,1.5-4.8,3.6-6.3,6.3c-1.5,2.6-2.3,5.7-2.4,9c0,1.3-0.1,3.1-0.1,5.6
		c0,2.5,0,4.3,0.1,5.6c0.1,3.3,0.9,6.4,2.4,9c1.5,2.6,3.6,4.8,6.3,6.3c2.7,1.5,5.9,2.3,9.5,2.3c4,0,7.3-0.8,10-2.3
		c2.7-1.5,4.7-3.5,6-5.7c1.3-2.3,2-4.5,2.1-6.6c0-0.5-0.2-1-0.6-1.4c-0.4-0.4-0.8-0.6-1.4-0.6h-2.9c-0.5,0-1,0.2-1.4,0.5
		c-0.4,0.3-0.7,0.8-0.8,1.3c-0.6,2.4-1.7,4.3-3.3,5.8c-1.6,1.5-4.2,2.2-7.7,2.2c-3.4,0-6.2-1-8-3l0,0c-1.9-2-2.9-4.7-3.1-8.1
		c0-1.2-0.1-3-0.1-5.2c0-2.2,0-4,0.1-5.2C247.9,375.3,248.9,372.6,250.8,370.6z"/>
	<path class="st1" d="M320.7,362.1c-0.4-0.4-1-0.7-1.6-0.7h-2.6c-0.6,0-1.2,0.2-1.6,0.7c-0.4,0.4-0.7,1-0.7,1.6v16.5h-20.8v-16.5
		c0-0.6-0.2-1.2-0.7-1.6c-0.4-0.4-1-0.7-1.6-0.7h-2.6c-0.6,0-1.2,0.2-1.6,0.7c-0.4,0.4-0.7,1-0.7,1.6v40.4c0,0.7,0.2,1.2,0.7,1.6
		c0.4,0.4,1,0.6,1.6,0.6h2.6c0.6,0,1.2-0.2,1.6-0.7c0.4-0.4,0.7-1,0.7-1.6v-17h20.8v17c0,0.6,0.2,1.2,0.7,1.6c0.4,0.4,1,0.7,1.6,0.7
		h2.6c0.6,0,1.2-0.2,1.6-0.7c0.4-0.4,0.7-1,0.7-1.6v-40.4C321.4,363.1,321.1,362.6,320.7,362.1L320.7,362.1z"/>
	<path class="st1" d="M355,363.9c-0.6-1.6-1.8-2.4-3.4-2.4h-3.8c-1.6,0-2.7,0.8-3.4,2.4l-15.3,39.4c-0.2,0.5-0.3,0.8-0.3,1.1
		c0,0.5,0.2,1,0.6,1.4c0.4,0.4,0.9,0.6,1.4,0.6h2.3c1.9,0,2.7-1.1,3-1.9l3.1-7.9h20.9l3.1,7.9c0.3,0.9,1.1,1.9,3,1.9h2.3
		c0.5,0,1-0.2,1.4-0.6c0.4-0.4,0.6-0.9,0.6-1.4c0-0.3-0.1-0.6-0.3-1.1L355,363.9z M357.6,389.7H342l7.8-20.1L357.6,389.7z"/>
	<path class="st1" d="M409.7,361.5h-2.6c-0.6,0-1.2,0.2-1.6,0.7c-0.4,0.4-0.7,1-0.7,1.6v28.8l-19.2-28.9c-0.4-0.6-0.8-1.1-1.2-1.5
		c-0.5-0.4-1.1-0.6-1.8-0.6h-2.2c-0.6,0-1.2,0.2-1.6,0.7c-0.4,0.4-0.7,1-0.7,1.6v40.4c0,0.6,0.2,1.2,0.7,1.6c0.4,0.4,1,0.7,1.6,0.7
		h2.6c0.6,0,1.2-0.2,1.6-0.7c0.4-0.4,0.7-1,0.7-1.6v-28.8l19.2,28.9c0.4,0.6,0.8,1.1,1.2,1.5c0.5,0.4,1.1,0.6,1.8,0.6h2.2
		c0.6,0,1.2-0.2,1.6-0.7c0.4-0.4,0.7-1,0.7-1.6v-40.4c0-0.6-0.2-1.2-0.7-1.6C410.9,361.7,410.3,361.5,409.7,361.5z"/>
	<path class="st1" d="M457,381h-13.3c-0.6,0-1.2,0.2-1.6,0.7c-0.4,0.4-0.7,1-0.7,1.6v2.3c0,0.6,0.2,1.2,0.7,1.6
		c0.4,0.4,1,0.7,1.6,0.7h8.4v1.2c0,3.9-1,6.8-3.1,8.5c-2,1.8-4.8,2.7-8.3,2.7c-3.4,0-6.1-1-8.1-2.8c-2-1.9-3.1-4.7-3.2-8.5
		c0-1.2-0.1-3-0.1-5.2c0-2.2,0-3.9,0.1-5.2c0.1-3.5,1.2-6.3,3.2-8.1c2-1.9,4.8-2.8,8.1-2.8c2.9,0,5.2,0.6,6.8,1.7
		c1.6,1.1,3,2.9,4.2,5.1c0.4,0.7,1.1,1,2.3,1h2.6c0.5,0,1-0.2,1.4-0.6c0.4-0.4,0.6-0.9,0.6-1.4c-0.1-1.7-0.9-3.6-2.3-5.6
		c-1.4-2-3.5-3.6-6.1-5l0,0c-2.7-1.3-5.8-2-9.5-2c-4,0-7.3,0.8-10.1,2.3c-2.7,1.5-4.8,3.6-6.2,6.2c-1.3,2.6-2.1,5.6-2.2,8.8
		c0,1.3-0.1,3.1-0.1,5.5c0,2.4,0,4.3,0.1,5.5c0.2,5.2,1.8,9.5,4.9,12.8c3.1,3.3,7.7,5,13.6,5c3.8,0,7.1-0.8,9.9-2.3
		c2.8-1.5,4.9-3.6,6.4-6.3c1.5-2.7,2.2-5.8,2.2-9.2v-5.9c0-0.6-0.2-1.2-0.7-1.6C458.1,381.3,457.6,381,457,381z"/>
	<path class="st1" d="M498.2,400.3c-0.4-0.4-1-0.7-1.6-0.7h-20.4v-12.5h18.5c0.6,0,1.2-0.2,1.6-0.7c0.4-0.4,0.7-1,0.7-1.6v-2.3
		c0-0.6-0.2-1.2-0.7-1.6c-0.4-0.4-1-0.7-1.6-0.7h-18.5v-12h19.9c0.6,0,1.2-0.2,1.6-0.7c0.4-0.4,0.7-1,0.7-1.6v-2.3
		c0-0.6-0.2-1.2-0.7-1.6c-0.4-0.4-1-0.7-1.6-0.7h-24.8c-0.6,0-1.2,0.2-1.6,0.7c-0.4,0.4-0.7,1-0.7,1.6v40.4c0,0.6,0.2,1.2,0.7,1.6
		c0.4,0.4,1,0.7,1.6,0.7h25.3c0.6,0,1.2-0.2,1.6-0.7c0.4-0.4,0.7-1,0.7-1.6v-2.2C498.9,401.2,498.7,400.7,498.2,400.3z"/>
	<circle class="st1" cx="484.4" cy="319.2" r="17"/>
	<g>
		<circle class="st1" cx="179.1" cy="189.7" r="17"/>
		<path class="st1" d="M196.1,230.1c0-2.4-2-4.4-4.4-4.4h-25.3c-2.4,0-4.4,2-4.4,4.4v101.7c0,2.4,2,4.4,4.4,4.4h25.3
			c2.4,0,4.4-2,4.4-4.4V230.1z"/>
	</g>
	<path class="st1" d="M288.6,331.8c0,2.4,2,4.4,4.4,4.4h25.3c2.4,0,4.4-2,4.4-4.4v-63.3c0-30.4-12.2-45.5-36.7-45.5
		c-15.5,0-27.4,6.7-35.5,20.2h-0.4V232v-1.8c0-2.4-2-4.4-4.4-4.4h-25.3c-2.4,0-4.4,2-4.4,4.4v101.7c0,2.4,2,4.4,4.4,4.4h25.3
		c2.4,0,4.4-2,4.4-4.4v-58.6c0-7,1.9-12.7,5.7-17.3c3.8-4.5,8.7-6.8,14.6-6.8c12.2,0,18.3,8.6,18.3,25.7L288.6,331.8z"/>
	<path class="st1" d="M452.9,177c0-2.4-2-4.4-4.4-4.4h-25.3c-2.4,0-4.4,2-4.4,4.4v16.4c0,0,0,0,0,0v44.9h-0.4
		c-5.6-10.2-15.5-15.3-29.8-15.3c-15,0-27.2,5.5-36.5,16.5c-9.3,11-13.9,25.6-13.9,43.9c0,17.5,4.2,31.1,12.6,40.8
		c8.4,9.7,19.5,14.6,33.3,14.6c15,0,26.4-6,34.2-17.9h0.4v10.8c0,2.4,2,4.4,4.4,4.4h25.3c2.4,0,4.4-2,4.4-4.4V177z M412.9,304.5
		c-4.4,5.5-10,8.3-16.9,8.3c-7.3,0-12.9-2.6-17-7.9c-4.1-5.2-6.2-12.7-6.2-22.4c0-10.4,2.1-18.5,6.4-24.4c4.2-5.9,10.1-8.9,17.7-8.9
		c6.7,0,12.1,2.4,16.3,7.1c4.2,4.7,6.3,10.7,6.3,17.9v8.3C419.4,291.6,417.3,298.9,412.9,304.5z"/>
	<path class="st1" d="M118,250.9h20.9c2.4,0,4.4-2,4.4-4.4v-16.4c0-2.4-2-4.4-4.4-4.4H118V214c0-11.9,5.5-18.6,16.4-17.8
		c0.2,0,0.4,0,0.7,0.1l8.6,1.5c2,0.3,4-1,4.3-3.1l3.1-18.3c0.3-2-1-4-3.1-4.3l-6.6-1.2c0,0,0,0,0,0c-3.4-0.6-7.3-0.9-11.7-0.9
		c-14.1,0-25.2,3.8-33.4,11.5C88.1,189.3,84,199.4,84,212v13.7H69.8c-2.4,0-4.4,2-4.4,4.4v16.4c0,2.4,2,4.4,4.4,4.4H84l-0.1,81
		c0,2.4,2,4.4,4.4,4.4h25.3c2.4,0,4.4-2,4.4-4.4L118,250.9z"/>
</g>
</svg>
